<svg width="121" height="74" viewBox="0 0 121 74" fill="none" xmlns="http://www.w3.org/2000/svg">
<path d="M5.0918 32.0549C2.33037 32.0549 0.0917966 34.2935 0.0917969 37.0549C0.0917971 39.8164 2.33037 42.0549 5.0918 42.0549L5.0918 32.0549ZM119.154 40.5905C121.107 38.6378 121.107 35.472 119.154 33.5194L87.3344 1.69959C85.3818 -0.253036 82.216 -0.253036 80.2633 1.69959C78.3107 3.65221 78.3107 6.81803 80.2633 8.77065L108.548 37.0549L80.2634 65.3392C78.3107 67.2918 78.3107 70.4576 80.2634 72.4103C82.216 74.3629 85.3818 74.3629 87.3344 72.4103L119.154 40.5905ZM5.0918 42.0549L115.619 42.0549L115.619 32.0549L5.0918 32.0549L5.0918 42.0549Z" fill="black"/>
</svg>
